<svg fill-rule="evenodd" clip-rule="evenodd" height="1024" width="1024" xmlns="http://www.w3.org/2000/svg" xmlns:xlink="http://www.w3.org/1999/xlink" version="1.1" x="0px" y="0px" viewBox="0 0 100 100"><g><path d="M61.408,56.563c-1.306-0.568-2.739-2.972-3.58-5.103c-1.048-2.654-2.944-6.191-7.331-6.459 c-0.07-0.016-0.144-0.024-0.219-0.024l-0.156,0.005c-0.021-0.001-0.125-0.005-0.147-0.005c-0.074,0-0.146,0.008-0.214,0.024 c-4.39,0.265-6.288,3.804-7.335,6.459c-0.841,2.13-2.274,4.535-3.58,5.103c-4.073,1.772-6.517,6.059-5.942,10.426 c0.523,3.976,3.417,6.831,7.553,7.451c1.785,0.269,3.706,0.022,5.4-0.69c0.551-0.231,1.059-0.504,1.551-0.768 c0.906-0.487,1.764-0.947,2.719-1.041c0.956,0.094,1.813,0.554,2.719,1.041c0.492,0.264,1,0.537,1.551,0.768 c1.242,0.522,2.606,0.798,3.946,0.798c0,0,0,0,0,0c0.488,0,0.977-0.036,1.454-0.108c4.136-0.62,7.03-3.475,7.553-7.451 C67.925,62.623,65.481,58.335,61.408,56.563z"></path><path d="M34.794,45.681c-0.897-4.491-4.124-7.751-7.671-7.751c-0.33,0-0.662,0.03-0.986,0.088 c-1.549,0.279-2.883,1.184-3.857,2.615c-1.368,2.01-1.832,4.769-1.272,7.571c0.897,4.492,4.124,7.751,7.672,7.751 c0.33,0,0.662-0.03,0.985-0.088c1.549-0.28,2.883-1.184,3.858-2.616C34.891,51.242,35.354,48.482,34.794,45.681z"></path><path d="M40.674,40.805c0.146,0,0.292-0.006,0.439-0.018c1.934-0.159,3.644-1.333,4.815-3.306c1.107-1.863,1.605-4.244,1.403-6.702 c-0.425-5.172-3.89-9.183-7.771-8.857c-3.857,0.318-6.646,4.808-6.218,10.008C33.752,36.907,36.973,40.805,40.674,40.805z"></path><path d="M73.863,38.019c-0.324-0.059-0.656-0.088-0.986-0.088c-3.548,0-6.774,3.26-7.671,7.751 c-0.56,2.801-0.096,5.561,1.272,7.571c0.975,1.432,2.309,2.336,3.858,2.616c0.324,0.058,0.655,0.088,0.985,0.088c0,0,0,0,0,0 c3.548,0,6.774-3.26,7.672-7.751c0.56-2.802,0.096-5.561-1.272-7.571C76.746,39.202,75.412,38.297,73.863,38.019z"></path><path d="M58.886,40.787c0.147,0.012,0.293,0.018,0.439,0.018c0,0,0,0,0,0c3.701,0,6.922-3.898,7.331-8.875 c0.428-5.201-2.361-9.69-6.218-10.008c-3.893-0.328-7.346,3.685-7.771,8.857c-0.202,2.458,0.296,4.839,1.403,6.702 C55.242,39.454,56.953,40.628,58.886,40.787z"></path><path d="M80.076,31.58v-7.704c0-1.104-0.896-2-2-2s-2,0.896-2,2v5.994c-0.611-0.162-1.232-0.3-1.872-0.384v-0.514 c0-7.165-4.776-12.432-13.157-14.623V7.013c0-1.104-0.896-2-2-2s-2,0.896-2,2v6.517c-4.739-0.744-9.512-0.735-14.241,0.023V7 c0-1.104-0.896-2-2-2s-2,0.896-2,2v7.384c-8.293,2.214-13.011,7.464-13.011,14.588v0.509c-0.69,0.09-1.36,0.241-2.018,0.421v-6.038 c0-1.104-0.896-2-2-2s-2,0.896-2,2v7.794c-4.227,2.658-7.048,7.356-7.048,12.708V93c0,1.104,0.896,2,2,2s2-0.896,2-2V44.366 c0-5.393,3.901-9.884,9.066-10.822v0.268c0,1.104,0.896,2,2,2s2-0.896,2-2v-2.456v-2.383c0-7.147,6.192-9.953,11.408-11.051 c0.005-0.001,0.011-0.003,0.016-0.004c0.003-0.001,0.005-0.001,0.008-0.002c2.213-0.476,4.439-0.767,6.668-0.88v4.542 c0,1.104,0.896,2,2,2s2-0.896,2-2v-4.551c2.133,0.098,4.264,0.365,6.386,0.795c0.225,0.094,0.472,0.145,0.73,0.15 c5.162,1.125,11.194,3.948,11.194,11.002v2.176c-0.023,0.121-0.038,0.245-0.038,0.373v2.457c0,1.104,0.896,2,2,2s2-0.896,2-2 v-0.445c5.164,0.907,9.104,5.414,9.104,10.834V93c0,1.104,0.896,2,2,2s2-0.896,2-2V44.366C87.271,38.96,84.391,34.223,80.076,31.58 z"></path></g></svg>