<?xml version="1.0" standalone="no"?>
<!DOCTYPE svg PUBLIC "-//W3C//DTD SVG 20010904//EN"
 "http://www.w3.org/TR/2001/REC-SVG-20010904/DTD/svg10.dtd">
<svg version="1.0" xmlns="http://www.w3.org/2000/svg"
 width="512.000000pt" height="512.000000pt" viewBox="0 0 512.000000 512.000000"
 preserveAspectRatio="xMidYMid meet">

<g transform="translate(0.000000,512.000000) scale(0.100000,-0.100000)"
fill="#000000" stroke="none">
<path d="M2160 4124 c-76 -21 -129 -54 -188 -119 -93 -102 -142 -238 -142
-400 0 -214 100 -399 258 -477 58 -29 76 -33 147 -33 71 0 89 4 147 33 244
120 342 487 203 768 -87 177 -265 273 -425 228z"/>
<path d="M3256 3920 c-124 -21 -269 -134 -349 -270 -108 -186 -127 -429 -46
-597 34 -70 101 -137 169 -167 55 -25 72 -28 144 -24 116 4 207 50 302 150
188 199 246 501 138 718 -71 141 -210 215 -358 190z"/>
<path d="M1269 3677 c-143 -54 -213 -167 -213 -342 0 -236 165 -456 373 -495
133 -25 265 47 322 175 98 221 -31 539 -260 642 -67 30 -170 39 -222 20z"/>
<path d="M3685 2892 c-130 -45 -239 -143 -302 -268 -36 -73 -38 -84 -38 -168
0 -106 19 -153 82 -205 202 -167 578 38 635 347 32 174 -82 312 -256 312 -41
-1 -93 -8 -121 -18z"/>
<path d="M2345 2876 c-81 -16 -165 -46 -233 -84 -47 -26 -164 -135 -195 -181
l-16 -24 -58 16 c-95 27 -170 31 -253 13 -257 -54 -441 -279 -444 -541 -1
-155 53 -285 164 -395 140 -140 335 -199 515 -155 129 31 293 12 420 -49 95
-45 157 -103 201 -187 67 -127 185 -226 326 -273 102 -34 177 -40 276 -22 282
50 482 293 482 586 0 200 -94 382 -255 491 l-70 48 -1 103 c-1 204 -87 374
-252 502 -168 129 -412 190 -607 152z"/>
</g>
</svg>
